
<svg width="24" height="24" viewBox="0 0 24 24" xmlns="http://www.w3.org/2000/svg">
  <defs>
    <linearGradient id="mapGrad" x1="0%" y1="0%" x2="100%" y2="100%">
      <stop offset="0%" style="stop-color:#4CAF50;stop-opacity:1" />
      <stop offset="100%" style="stop-color:#2E7D32;stop-opacity:1" />
    </linearGradient>
  </defs>
  <!-- Carte de base -->
  <rect x="3" y="5" width="18" height="14" rx="2" fill="#E8F5E8" stroke="#4CAF50" stroke-width="1"/>
  
  <!-- Zones agricoles classifiées -->
  <rect x="5" y="7" width="5" height="4" rx="0.5" fill="#8BC34A" stroke="#689F38" stroke-width="0.3"/>
  <rect x="11" y="7" width="4" height="3" rx="0.5" fill="#CDDC39" stroke="#9E9D24" stroke-width="0.3"/>
  <rect x="16" y="7" width="3" height="5" rx="0.5" fill="#FFC107" stroke="#F57C00" stroke-width="0.3"/>
  
  <rect x="5" y="12" width="3" height="5" rx="0.5" fill="#FF5722" stroke="#D84315" stroke-width="0.3"/>
  <rect x="9" y="13" width="6" height="4" rx="0.5" fill="#795548" stroke="#5D4037" stroke-width="0.3"/>
  <rect x="16" y="13" width="3" height="4" rx="0.5" fill="#607D8B" stroke="#455A64" stroke-width="0.3"/>
  
  <!-- Légende -->
  <rect x="1" y="2" width="2" height="1" fill="#8BC34A"/>
  <rect x="5" y="2" width="2" height="1" fill="#CDDC39"/>
  <rect x="9" y="2" width="2" height="1" fill="#FFC107"/>
  
  <!-- Icône de classification -->
  <circle cx="20" cy="4" r="2" fill="#2196F3" stroke="#1976D2" stroke-width="0.5"/>
  <path d="M18,4 L16,2 L18,2 Z" fill="#2196F3"/>
</svg>
