
<svg width="24" height="24" viewBox="0 0 24 24" xmlns="http://www.w3.org/2000/svg">
  <defs>
    <linearGradient id="dataGrad" x1="0%" y1="0%" x2="100%" y2="100%">
      <stop offset="0%" style="stop-color:#FF9800;stop-opacity:1" />
      <stop offset="100%" style="stop-color:#F57C00;stop-opacity:1" />
    </linearGradient>
  </defs>
  <!-- Base de données -->
  <ellipse cx="12" cy="18" rx="8" ry="3" fill="url(#dataGrad)" stroke="#E65100" stroke-width="0.5"/>
  <rect x="4" y="15" width="16" height="6" fill="url(#dataGrad)" stroke="#E65100" stroke-width="0.5"/>
  <ellipse cx="12" cy="15" rx="8" ry="3" fill="#FFB74D" stroke="#F57C00" stroke-width="0.3"/>
  
  <!-- Flèches de traitement -->
  <path d="M6,8 L10,12 L6,16" fill="none" stroke="#4CAF50" stroke-width="2" stroke-linecap="round" stroke-linejoin="round"/>
  <path d="M18,8 L14,12 L18,16" fill="none" stroke="#4CAF50" stroke-width="2" stroke-linecap="round" stroke-linejoin="round"/>
  
  <!-- Données en entrée -->
  <rect x="2" y="3" width="6" height="2" rx="1" fill="#2196F3" opacity="0.8"/>
  <rect x="2" y="6" width="6" height="2" rx="1" fill="#2196F3" opacity="0.6"/>
  <rect x="2" y="9" width="6" height="2" rx="1" fill="#2196F3" opacity="0.4"/>
  
  <!-- Données en sortie -->
  <rect x="16" y="3" width="6" height="2" rx="1" fill="#4CAF50" opacity="0.8"/>
  <rect x="16" y="6" width="6" height="2" rx="1" fill="#4CAF50" opacity="0.6"/>
  <rect x="16" y="9" width="6" height="2" rx="1" fill="#4CAF50" opacity="0.4"/>
</svg>
