
<svg width="24" height="24" viewBox="0 0 24 24" xmlns="http://www.w3.org/2000/svg">
  <defs>
    <linearGradient id="brainGrad" x1="0%" y1="0%" x2="100%" y2="100%">
      <stop offset="0%" style="stop-color:#9C27B0;stop-opacity:1" />
      <stop offset="100%" style="stop-color:#673AB7;stop-opacity:1" />
    </linearGradient>
  </defs>
  <!-- Réseau de neurones -->
  <circle cx="6" cy="6" r="2" fill="url(#brainGrad)" stroke="#4A148C" stroke-width="0.5"/>
  <circle cx="6" cy="12" r="2" fill="url(#brainGrad)" stroke="#4A148C" stroke-width="0.5"/>
  <circle cx="6" cy="18" r="2" fill="url(#brainGrad)" stroke="#4A148C" stroke-width="0.5"/>
  
  <circle cx="12" cy="8" r="2" fill="#FF9800" stroke="#E65100" stroke-width="0.5"/>
  <circle cx="12" cy="16" r="2" fill="#FF9800" stroke="#E65100" stroke-width="0.5"/>
  
  <circle cx="18" cy="12" r="2" fill="#4CAF50" stroke="#2E7D32" stroke-width="0.5"/>
  
  <!-- Connexions -->
  <line x1="8" y1="6" x2="10" y2="8" stroke="#9C27B0" stroke-width="1.5" opacity="0.7"/>
  <line x1="8" y1="12" x2="10" y2="8" stroke="#9C27B0" stroke-width="1.5" opacity="0.7"/>
  <line x1="8" y1="12" x2="10" y2="16" stroke="#9C27B0" stroke-width="1.5" opacity="0.7"/>
  <line x1="8" y1="18" x2="10" y2="16" stroke="#9C27B0" stroke-width="1.5" opacity="0.7"/>
  
  <line x1="14" y1="8" x2="16" y2="12" stroke="#FF9800" stroke-width="1.5" opacity="0.7"/>
  <line x1="14" y1="16" x2="16" y2="12" stroke="#FF9800" stroke-width="1.5" opacity="0.7"/>
  
  <!-- Indicateur d'apprentissage -->
  <path d="M20,2 L22,4 L20,6" fill="none" stroke="#4CAF50" stroke-width="1.5" stroke-linecap="round" stroke-linejoin="round"/>
  <path d="M21,4 Q19,4 19,6" fill="none" stroke="#4CAF50" stroke-width="1.5" stroke-linecap="round"/>
</svg>
